<mxfile host="65bd71144e">
    <diagram id="4yIVGi3FwNv32nIHw96h" name="About Us Page">
        <mxGraphModel dx="776" dy="575" grid="1" gridSize="10" guides="1" tooltips="1" connect="1" arrows="1" fold="1" page="1" pageScale="1" pageWidth="850" pageHeight="1100" math="0" shadow="0">
            <root>
                <mxCell id="ExqIH3tgTw6KlEuZpwMR-0"/>
                <mxCell id="ExqIH3tgTw6KlEuZpwMR-1" parent="ExqIH3tgTw6KlEuZpwMR-0"/>
                <mxCell id="ZtMeFOP-PAlH4SeSv025-0" value="" style="rounded=0;whiteSpace=wrap;html=1;fontFamily=Helvetica;" vertex="1" parent="ExqIH3tgTw6KlEuZpwMR-1">
                    <mxGeometry x="30" y="30" width="770" height="440" as="geometry"/>
                </mxCell>
                <mxCell id="ZtMeFOP-PAlH4SeSv025-1" value="" style="rounded=0;whiteSpace=wrap;html=1;fontFamily=Helvetica;" vertex="1" parent="ExqIH3tgTw6KlEuZpwMR-1">
                    <mxGeometry x="60" y="50" width="700" height="40" as="geometry"/>
                </mxCell>
                <mxCell id="ZtMeFOP-PAlH4SeSv025-3" value="FOOTER&amp;nbsp;" style="rounded=0;whiteSpace=wrap;html=1;fontFamily=Helvetica;" vertex="1" parent="ExqIH3tgTw6KlEuZpwMR-1">
                    <mxGeometry x="50" y="420" width="730" height="40" as="geometry"/>
                </mxCell>
                <mxCell id="E-DnL_YD9GuMWTzI9t9W-0" value="Sign Up" style="text;html=1;strokeColor=none;fillColor=none;align=center;verticalAlign=middle;whiteSpace=wrap;rounded=0;" vertex="1" parent="ExqIH3tgTw6KlEuZpwMR-1">
                    <mxGeometry x="680" y="55" width="60" height="30" as="geometry"/>
                </mxCell>
                <mxCell id="ZtMeFOP-PAlH4SeSv025-5" value="Teacher Login" style="text;html=1;strokeColor=none;fillColor=none;align=center;verticalAlign=middle;whiteSpace=wrap;rounded=0;fontFamily=Helvetica;" vertex="1" parent="ExqIH3tgTw6KlEuZpwMR-1">
                    <mxGeometry x="540" y="55" width="60" height="30" as="geometry"/>
                </mxCell>
                <mxCell id="E-DnL_YD9GuMWTzI9t9W-1" value="Student Login" style="text;html=1;strokeColor=none;fillColor=none;align=center;verticalAlign=middle;whiteSpace=wrap;rounded=0;" vertex="1" parent="ExqIH3tgTw6KlEuZpwMR-1">
                    <mxGeometry x="610" y="55" width="60" height="30" as="geometry"/>
                </mxCell>
                <mxCell id="ZtMeFOP-PAlH4SeSv025-6" value="&lt;h1&gt;About Us&lt;/h1&gt;&lt;p&gt;Lorem ipsum dolor sit amet, consectetur adipisicing elit, sed do eiusmod tempor incididunt ut labore et dolore magna aliqua.&lt;/p&gt;&lt;p&gt;Lorem ipsum dolor sit amet, consectetur adipisicing elit, sed do eiusmod tempor incididunt ut labore et dolore magna aliqua&lt;/p&gt;Lorem ipsum dolor sit amet, consectetur adipisicing elit, sed do eiusmod tempor incididunt ut labore et dolore magna aliqua.&lt;p&gt;.&lt;br&gt;&lt;/p&gt;" style="text;html=1;strokeColor=none;fillColor=none;spacing=5;spacingTop=-20;whiteSpace=wrap;overflow=hidden;rounded=0;fontFamily=Helvetica;" vertex="1" parent="ExqIH3tgTw6KlEuZpwMR-1">
                    <mxGeometry x="70" y="120" width="690" height="160" as="geometry"/>
                </mxCell>
                <mxCell id="Mi8BzaPjkI4lWHt2muyp-0" style="edgeStyle=none;html=1;" edge="1" parent="ExqIH3tgTw6KlEuZpwMR-1" target="ZtMeFOP-PAlH4SeSv025-3">
                    <mxGeometry relative="1" as="geometry">
                        <mxPoint x="415" y="410" as="sourcePoint"/>
                    </mxGeometry>
                </mxCell>
            </root>
        </mxGraphModel>
    </diagram>
    <diagram id="8kjsgSGPUp6MripZ7IJa" name="Login Page">
        <mxGraphModel dx="1626" dy="1675" grid="1" gridSize="10" guides="1" tooltips="1" connect="1" arrows="1" fold="1" page="1" pageScale="1" pageWidth="850" pageHeight="1100" math="0" shadow="0">
            <root>
                <mxCell id="0"/>
                <mxCell id="1" parent="0"/>
                <mxCell id="5" value="" style="shape=ext;double=1;whiteSpace=wrap;html=1;aspect=fixed;" vertex="1" parent="1">
                    <mxGeometry x="-20" y="-1070" width="530" height="530" as="geometry"/>
                </mxCell>
                <mxCell id="7" value="" style="rounded=0;whiteSpace=wrap;html=1;" vertex="1" parent="1">
                    <mxGeometry x="110" y="-985" width="270" height="360" as="geometry"/>
                </mxCell>
                <mxCell id="8" value="" style="rounded=0;whiteSpace=wrap;html=1;fontFamily=Helvetica;" vertex="1" parent="1">
                    <mxGeometry x="210" y="-870" width="140" height="30" as="geometry"/>
                </mxCell>
                <mxCell id="9" value="" style="rounded=0;whiteSpace=wrap;html=1;" vertex="1" parent="1">
                    <mxGeometry x="210" y="-820" width="140" height="30" as="geometry"/>
                </mxCell>
                <mxCell id="10" value="LOGIN" style="rounded=1;whiteSpace=wrap;html=1;" vertex="1" parent="1">
                    <mxGeometry x="180" y="-760" width="120" height="30" as="geometry"/>
                </mxCell>
                <mxCell id="13" value="Email Id" style="text;html=1;strokeColor=none;fillColor=none;align=center;verticalAlign=middle;whiteSpace=wrap;rounded=0;fontFamily=Helvetica;" vertex="1" parent="1">
                    <mxGeometry x="120" y="-870" width="60" height="30" as="geometry"/>
                </mxCell>
                <mxCell id="14" value="Password" style="text;html=1;strokeColor=none;fillColor=none;align=center;verticalAlign=middle;whiteSpace=wrap;rounded=0;fontFamily=Helvetica;" vertex="1" parent="1">
                    <mxGeometry x="125" y="-820" width="60" height="30" as="geometry"/>
                </mxCell>
                <mxCell id="15" value="Sign Up" style="text;html=1;strokeColor=none;fillColor=none;align=center;verticalAlign=middle;whiteSpace=wrap;rounded=0;" vertex="1" parent="1">
                    <mxGeometry x="190" y="-710" width="110" height="30" as="geometry"/>
                </mxCell>
                <mxCell id="16" value="HEADING" style="text;html=1;strokeColor=none;fillColor=none;align=center;verticalAlign=middle;whiteSpace=wrap;rounded=0;fontFamily=Helvetica;" vertex="1" parent="1">
                    <mxGeometry x="155" y="-970" width="180" height="30" as="geometry"/>
                </mxCell>
            </root>
        </mxGraphModel>
    </diagram>
    <diagram id="Bbhji9UGI7SfxLiEgVfA" name="Student Dashboard">
        <mxGraphModel dx="776" dy="575" grid="1" gridSize="10" guides="1" tooltips="1" connect="1" arrows="1" fold="1" page="1" pageScale="1" pageWidth="850" pageHeight="1100" math="0" shadow="0">
            <root>
                <mxCell id="zXzUjoa1P5fi8Ffi5AOU-0"/>
                <mxCell id="zXzUjoa1P5fi8Ffi5AOU-1" parent="zXzUjoa1P5fi8Ffi5AOU-0"/>
                <mxCell id="Kfoxr7Jj5gj9MzMsQyzw-0" value="" style="rounded=0;whiteSpace=wrap;html=1;" vertex="1" parent="zXzUjoa1P5fi8Ffi5AOU-1">
                    <mxGeometry x="30" y="50" width="740" height="470" as="geometry"/>
                </mxCell>
                <mxCell id="x2AUl-yf8b87zl7sVc9--0" value="" style="rounded=1;whiteSpace=wrap;html=1;" vertex="1" parent="zXzUjoa1P5fi8Ffi5AOU-1">
                    <mxGeometry x="60" y="70" width="680" height="40" as="geometry"/>
                </mxCell>
                <mxCell id="x2AUl-yf8b87zl7sVc9--1" value="Log Out" style="text;html=1;strokeColor=none;fillColor=none;align=center;verticalAlign=middle;whiteSpace=wrap;rounded=0;" vertex="1" parent="zXzUjoa1P5fi8Ffi5AOU-1">
                    <mxGeometry x="670" y="75" width="60" height="30" as="geometry"/>
                </mxCell>
                <mxCell id="x2AUl-yf8b87zl7sVc9--2" value="Join Exam Room" style="text;html=1;strokeColor=none;fillColor=none;align=center;verticalAlign=middle;whiteSpace=wrap;rounded=0;" vertex="1" parent="zXzUjoa1P5fi8Ffi5AOU-1">
                    <mxGeometry x="520" y="75" width="60" height="30" as="geometry"/>
                </mxCell>
                <mxCell id="7WoRQ0zAWr24PRS91U3V-0" value="Profile" style="text;html=1;strokeColor=none;fillColor=none;align=center;verticalAlign=middle;whiteSpace=wrap;rounded=0;" vertex="1" parent="zXzUjoa1P5fi8Ffi5AOU-1">
                    <mxGeometry x="600" y="75" width="60" height="30" as="geometry"/>
                </mxCell>
                <mxCell id="ptVAV-YRe3XVn0_-v7bF-0" value="" style="rounded=0;whiteSpace=wrap;html=1;" vertex="1" parent="zXzUjoa1P5fi8Ffi5AOU-1">
                    <mxGeometry x="190" y="227.5" width="140" height="90" as="geometry"/>
                </mxCell>
                <mxCell id="CBZ8GPZlbyutA05bMjcJ-1" value="Available Exams" style="text;html=1;strokeColor=none;fillColor=none;align=center;verticalAlign=middle;whiteSpace=wrap;rounded=0;" vertex="1" parent="zXzUjoa1P5fi8Ffi5AOU-1">
                    <mxGeometry x="230" y="257.5" width="60" height="30" as="geometry"/>
                </mxCell>
                <mxCell id="CBZ8GPZlbyutA05bMjcJ-2" value="" style="rounded=0;whiteSpace=wrap;html=1;" vertex="1" parent="zXzUjoa1P5fi8Ffi5AOU-1">
                    <mxGeometry x="450" y="230" width="140" height="90" as="geometry"/>
                </mxCell>
                <mxCell id="CBZ8GPZlbyutA05bMjcJ-3" value="Previous Exams" style="text;html=1;strokeColor=none;fillColor=none;align=center;verticalAlign=middle;whiteSpace=wrap;rounded=0;" vertex="1" parent="zXzUjoa1P5fi8Ffi5AOU-1">
                    <mxGeometry x="490" y="260" width="60" height="30" as="geometry"/>
                </mxCell>
            </root>
        </mxGraphModel>
    </diagram>
    <diagram id="0ca-sSrQqBaY6ztvT5Tu" name="Teacher's Dashboard">
        <mxGraphModel dx="777" dy="575" grid="1" gridSize="10" guides="1" tooltips="1" connect="1" arrows="1" fold="1" page="1" pageScale="1" pageWidth="850" pageHeight="1100" math="0" shadow="0">
            <root>
                <mxCell id="jTh9CUPToRiEz6029SHT-0"/>
                <mxCell id="jTh9CUPToRiEz6029SHT-1" parent="jTh9CUPToRiEz6029SHT-0"/>
                <mxCell id="2Oag82weWbT6OPz6Am3d-0" value="" style="rounded=0;whiteSpace=wrap;html=1;fontFamily=Helvetica;" vertex="1" parent="jTh9CUPToRiEz6029SHT-1">
                    <mxGeometry x="70" y="50" width="680" height="420" as="geometry"/>
                </mxCell>
                <mxCell id="BIw-mPvlz_RNqV7H5xk0-0" value="" style="rounded=0;whiteSpace=wrap;html=1;fontFamily=Helvetica;" vertex="1" parent="jTh9CUPToRiEz6029SHT-1">
                    <mxGeometry x="100" y="70" width="630" height="60" as="geometry"/>
                </mxCell>
                <mxCell id="BIw-mPvlz_RNqV7H5xk0-2" value="" style="rounded=1;whiteSpace=wrap;html=1;fontFamily=Helvetica;" vertex="1" parent="jTh9CUPToRiEz6029SHT-1">
                    <mxGeometry x="620" y="75" width="100" height="50" as="geometry"/>
                </mxCell>
                <mxCell id="BIw-mPvlz_RNqV7H5xk0-3" value="Logout" style="text;html=1;strokeColor=none;fillColor=none;align=center;verticalAlign=middle;whiteSpace=wrap;rounded=0;fontFamily=Helvetica;" vertex="1" parent="jTh9CUPToRiEz6029SHT-1">
                    <mxGeometry x="640" y="85" width="60" height="30" as="geometry"/>
                </mxCell>
                <mxCell id="BIw-mPvlz_RNqV7H5xk0-4" value="" style="rounded=0;whiteSpace=wrap;html=1;fontFamily=Helvetica;" vertex="1" parent="jTh9CUPToRiEz6029SHT-1">
                    <mxGeometry x="490" y="77.5" width="120" height="45" as="geometry"/>
                </mxCell>
                <mxCell id="BIw-mPvlz_RNqV7H5xk0-5" value="Check Students Profile" style="text;html=1;strokeColor=none;fillColor=none;align=center;verticalAlign=middle;whiteSpace=wrap;rounded=0;fontFamily=Helvetica;" vertex="1" parent="jTh9CUPToRiEz6029SHT-1">
                    <mxGeometry x="495" y="85" width="110" height="30" as="geometry"/>
                </mxCell>
                <mxCell id="BIw-mPvlz_RNqV7H5xk0-7" value="" style="rounded=0;whiteSpace=wrap;html=1;fontFamily=Helvetica;" vertex="1" parent="jTh9CUPToRiEz6029SHT-1">
                    <mxGeometry x="365" y="77.5" width="120" height="45" as="geometry"/>
                </mxCell>
                <mxCell id="BIw-mPvlz_RNqV7H5xk0-8" value="Create an Exam" style="text;html=1;strokeColor=none;fillColor=none;align=center;verticalAlign=middle;whiteSpace=wrap;rounded=0;fontFamily=Helvetica;" vertex="1" parent="jTh9CUPToRiEz6029SHT-1">
                    <mxGeometry x="370" y="85" width="110" height="30" as="geometry"/>
                </mxCell>
                <mxCell id="BIw-mPvlz_RNqV7H5xk0-9" value="" style="rounded=0;whiteSpace=wrap;html=1;fontFamily=Helvetica;" vertex="1" parent="jTh9CUPToRiEz6029SHT-1">
                    <mxGeometry x="100" y="175" width="230" height="40" as="geometry"/>
                </mxCell>
                <mxCell id="BIw-mPvlz_RNqV7H5xk0-13" value="" style="rounded=0;whiteSpace=wrap;html=1;fontFamily=Helvetica;" vertex="1" parent="jTh9CUPToRiEz6029SHT-1">
                    <mxGeometry x="100" y="275" width="210" height="40" as="geometry"/>
                </mxCell>
                <mxCell id="BIw-mPvlz_RNqV7H5xk0-14" value="EXAMS&amp;nbsp;" style="text;html=1;strokeColor=none;fillColor=none;align=center;verticalAlign=middle;whiteSpace=wrap;rounded=0;fontFamily=Helvetica;" vertex="1" parent="jTh9CUPToRiEz6029SHT-1">
                    <mxGeometry x="115" y="280" width="180" height="30" as="geometry"/>
                </mxCell>
            </root>
        </mxGraphModel>
    </diagram>
    <diagram id="wNDlp5_b6D2oavIsJAlk" name="Sign Up Page">
        <mxGraphModel dx="776" dy="575" grid="1" gridSize="10" guides="1" tooltips="1" connect="1" arrows="1" fold="1" page="1" pageScale="1" pageWidth="850" pageHeight="1100" math="0" shadow="0">
            <root>
                <mxCell id="d4-0kCkyaN3TOfVluZbE-0"/>
                <mxCell id="d4-0kCkyaN3TOfVluZbE-1" parent="d4-0kCkyaN3TOfVluZbE-0"/>
                <mxCell id="5NVDdIN7nDcqhKTNA-Ts-0" value="" style="whiteSpace=wrap;html=1;" vertex="1" parent="d4-0kCkyaN3TOfVluZbE-1">
                    <mxGeometry x="70" y="80" width="670" height="430" as="geometry"/>
                </mxCell>
                <mxCell id="ryXl-r3xM2VN19znU6sI-2" value="" style="rounded=0;whiteSpace=wrap;html=1;fontSize=16;" vertex="1" parent="d4-0kCkyaN3TOfVluZbE-1">
                    <mxGeometry x="230" y="130" width="290" height="35" as="geometry"/>
                </mxCell>
                <mxCell id="ryXl-r3xM2VN19znU6sI-3" value="E-mail" style="text;html=1;strokeColor=none;fillColor=none;align=center;verticalAlign=middle;whiteSpace=wrap;rounded=0;fontSize=16;labelPosition=center;verticalLabelPosition=middle;" vertex="1" parent="d4-0kCkyaN3TOfVluZbE-1">
                    <mxGeometry x="120" y="190" width="90" height="40" as="geometry"/>
                </mxCell>
                <mxCell id="j75r1RxIoD0DbhgRRc1y-0" value="" style="rounded=0;whiteSpace=wrap;html=1;" vertex="1" parent="d4-0kCkyaN3TOfVluZbE-1">
                    <mxGeometry x="230" y="190" width="290" height="40" as="geometry"/>
                </mxCell>
                <mxCell id="ryXl-r3xM2VN19znU6sI-4" value="Password" style="text;html=1;strokeColor=none;fillColor=none;align=center;verticalAlign=middle;whiteSpace=wrap;rounded=0;fontSize=16;labelPosition=center;verticalLabelPosition=middle;" vertex="1" parent="d4-0kCkyaN3TOfVluZbE-1">
                    <mxGeometry x="120" y="250" width="90" height="40" as="geometry"/>
                </mxCell>
                <mxCell id="ryXl-r3xM2VN19znU6sI-6" value="Name" style="text;html=1;strokeColor=none;fillColor=none;align=center;verticalAlign=middle;whiteSpace=wrap;rounded=0;fontSize=16;labelPosition=center;verticalLabelPosition=middle;" vertex="1" parent="d4-0kCkyaN3TOfVluZbE-1">
                    <mxGeometry x="120" y="135" width="90" height="35" as="geometry"/>
                </mxCell>
                <mxCell id="j75r1RxIoD0DbhgRRc1y-1" value="" style="rounded=0;whiteSpace=wrap;html=1;" vertex="1" parent="d4-0kCkyaN3TOfVluZbE-1">
                    <mxGeometry x="230" y="255" width="290" height="35" as="geometry"/>
                </mxCell>
                <mxCell id="ryXl-r3xM2VN19znU6sI-7" value="Confirm Password" style="text;html=1;strokeColor=none;fillColor=none;align=center;verticalAlign=middle;whiteSpace=wrap;rounded=0;fontSize=16;" vertex="1" parent="d4-0kCkyaN3TOfVluZbE-1">
                    <mxGeometry x="120" y="330" width="90" height="40" as="geometry"/>
                </mxCell>
                <mxCell id="j75r1RxIoD0DbhgRRc1y-3" value="" style="rounded=0;whiteSpace=wrap;html=1;" vertex="1" parent="d4-0kCkyaN3TOfVluZbE-1">
                    <mxGeometry x="230" y="330" width="290" height="35" as="geometry"/>
                </mxCell>
                <mxCell id="ryXl-r3xM2VN19znU6sI-8" value="" style="rounded=0;whiteSpace=wrap;html=1;fontSize=16;" vertex="1" parent="d4-0kCkyaN3TOfVluZbE-1">
                    <mxGeometry x="310" y="425" width="100" height="40" as="geometry"/>
                </mxCell>
                <mxCell id="j75r1RxIoD0DbhgRRc1y-4" value="Submit" style="text;html=1;strokeColor=none;fillColor=none;align=center;verticalAlign=middle;whiteSpace=wrap;rounded=0;" vertex="1" parent="d4-0kCkyaN3TOfVluZbE-1">
                    <mxGeometry x="330" y="430" width="60" height="30" as="geometry"/>
                </mxCell>
                <mxCell id="j75r1RxIoD0DbhgRRc1y-5" value="Teacher" style="text;html=1;strokeColor=none;fillColor=none;align=center;verticalAlign=middle;whiteSpace=wrap;rounded=0;fontSize=16;" vertex="1" parent="d4-0kCkyaN3TOfVluZbE-1">
                    <mxGeometry x="260" y="390" width="70" height="20" as="geometry"/>
                </mxCell>
                <mxCell id="j75r1RxIoD0DbhgRRc1y-6" value="" style="ellipse;shape=doubleEllipse;whiteSpace=wrap;html=1;" vertex="1" parent="d4-0kCkyaN3TOfVluZbE-1">
                    <mxGeometry x="230" y="390" width="20" height="25" as="geometry"/>
                </mxCell>
                <mxCell id="ryXl-r3xM2VN19znU6sI-9" value="Student" style="text;html=1;strokeColor=none;fillColor=none;align=center;verticalAlign=middle;whiteSpace=wrap;rounded=0;fontSize=16;" vertex="1" parent="d4-0kCkyaN3TOfVluZbE-1">
                    <mxGeometry x="410" y="390" width="70" height="20" as="geometry"/>
                </mxCell>
                <mxCell id="j75r1RxIoD0DbhgRRc1y-7" value="" style="ellipse;shape=doubleEllipse;whiteSpace=wrap;html=1;" vertex="1" parent="d4-0kCkyaN3TOfVluZbE-1">
                    <mxGeometry x="370" y="390" width="20" height="25" as="geometry"/>
                </mxCell>
            </root>
        </mxGraphModel>
    </diagram>
</mxfile>